<?xml version="1.0" ?><!DOCTYPE svg  PUBLIC '-//W3C//DTD SVG 1.1//EN'  'http://www.w3.org/Graphics/SVG/1.1/DTD/svg11.dtd'><svg xmlns="http://www.w3.org/2000/svg" xmlns:xlink="http://www.w3.org/1999/xlink" xmlns:serif="http://www.serif.com/" width="100%" height="100%" viewBox="0 0 64 64" version="1.1" xml:space="preserve" style="fill-rule:evenodd;clip-rule:evenodd;stroke-linejoin:round;stroke-miterlimit:2;"><g transform="matrix(-0.878979,-0.878979,0.906957,-0.906957,13.5631,106.691)"><g transform="matrix(-0.568842,0.551294,-0.568842,-0.551294,68.4056,51.3409)"><path d="M18.438,40.228C19.263,39.494 25.552,32.907 26.425,32.231C27.298,31.555 27.457,30.298 26.781,29.425C25.173,27.348 23.746,25.12 22.522,22.762L27.441,14.696C27.922,13.908 27.801,12.894 27.148,12.241L16.6,1.693C15.918,1.011 14.847,0.913 14.053,1.459C14.053,1.459 9.932,4.292 5.187,8.012C1.135,11.189 -0.058,16.78 2.335,21.175C2.335,21.175 2.336,21.175 2.336,21.176C6.051,27.997 10.511,34.327 15.615,40.063C16.348,40.887 17.614,40.961 18.438,40.228Z"/></g><g transform="matrix(1,2.22045e-16,0,1,-0.000304778,-0.000241282)"><path d="M21.353,51.209C23.344,50.598 25.375,50.162 27.422,49.902C28.303,49.79 28.924,49.006 28.808,48.153C28.693,47.3 28.904,40.192 28.851,39.333C28.798,38.474 28.035,37.818 27.149,37.87C21.022,38.225 14.924,39.253 8.969,40.955L8.967,40.955C5.106,42.058 2.604,45.798 3.102,49.783C3.686,54.45 4.418,58.284 4.418,58.284C4.559,59.023 5.224,59.559 6,59.559L18,59.559C18.743,59.559 19.389,59.067 19.564,58.367L21.353,51.209Z"/></g><g transform="matrix(-0.568842,0.551294,-0.568842,-0.551294,68.4056,51.3409)"><path d="M58.586,2.586L2.586,58.586C1.805,59.366 1.805,60.634 2.586,61.414C3.366,62.195 4.634,62.195 5.414,61.414L61.414,5.414C62.195,4.634 62.195,3.366 61.414,2.586C60.634,1.805 59.366,1.805 58.586,2.586Z"/></g></g></svg>